<svg width="64" height="64" viewBox="0 0 64 64" fill="none" xmlns="http://www.w3.org/2000/svg">
<rect width="64" height="64" fill="white"/>
<path d="M17.75 46.375C17.75 42.44 20.94 39.25 24.875 39.25H32V46.375C32 50.31 28.81 53.5 24.875 53.5C20.94 53.5 17.75 50.31 17.75 46.375Z" fill="#24CB71"/>
<path d="M32 10.75V25H39.125C43.06 25 46.25 21.81 46.25 17.875C46.25 13.94 43.06 10.75 39.125 10.75H32Z" fill="#FF7237"/>
<path d="M39.125 39.25C43.06 39.25 46.25 36.06 46.25 32.125C46.25 28.19 43.06 25 39.125 25C35.19 25 32 28.19 32 32.125C32 36.06 35.19 39.25 39.125 39.25Z" fill="#00B6FF"/>
<path d="M17.75 17.875C17.75 21.81 20.94 25 24.875 25H32V10.75H24.875C20.94 10.75 17.75 13.94 17.75 17.875Z" fill="#FF3737"/>
<path d="M17.75 32.125C17.75 36.06 20.94 39.25 24.875 39.25H32V25H24.875C20.94 25 17.75 28.19 17.75 32.125Z" fill="#874FFF"/>
</svg>
