<svg width="256" height="256" viewBox="0 0 256 256" fill="none" xmlns="http://www.w3.org/2000/svg">
<rect width="256" height="256" fill="white"/>
<path d="M71 184.5C71 168.76 83.76 156 99.5 156H128V184.5C128 200.24 115.24 213 99.5 213C83.76 213 71 200.24 71 184.5Z" fill="#24CB71"/>
<path d="M128 42V99H156.5C172.24 99 185 86.24 185 70.5C185 54.76 172.24 42 156.5 42H128Z" fill="#FF7237"/>
<path d="M156.5 156C172.24 156 185 143.24 185 127.5C185 111.76 172.24 99 156.5 99C140.76 99 128 111.76 128 127.5C128 143.24 140.76 156 156.5 156Z" fill="#00B6FF"/>
<path d="M71 70.5C71 86.24 83.76 99 99.5 99H128V42H99.5C83.76 42 71 54.76 71 70.5Z" fill="#FF3737"/>
<path d="M71 127.5C71 143.24 83.76 156 99.5 156H128V99H99.5C83.76 99 71 111.76 71 127.5Z" fill="#874FFF"/>
</svg>
